<?xml version="1.0" encoding="UTF-8"?>
<svg xmlns="http://www.w3.org/2000/svg" xmlns:xlink="http://www.w3.org/1999/xlink" version="1.1" id="Layer_1" x="0px" y="0px" width="103.1px" height="103.1px" viewBox="0 0 103.1 103.1" style="enable-background:new 0 0 434.1 103.1;" xml:space="preserve">
<style type="text/css">
	.st0{fill:#FFFFFF;}
	.st1{fill:#EE243C;}
</style>
<g>
	<g>
		<polygon class="st0" points="101,101 73.8,101 71.9,103 56.3,103 54.4,101 1.9,101 1.9,1.9 13.6,1.9 15.5,0 31.1,0 33,1.9     101,1.9   "/>
		<g>
			<path class="st1" d="M55.1,47.1l-23.3,8.5c-0.4,0.1-0.6,0.5-0.6,0.9v15.2c0,0.7,0.7,1.1,1.3,0.9l21.4-7.8c1.5-0.6,2.6-2,2.6-3.6     V48C56.3,47.3,55.7,46.8,55.1,47.1z"/>
			<path class="st1" d="M56.3,78.3L27.3,88.9c-5.7,2.1-11.7-2.1-11.7-8.2V0.1H0v103h56.3V78.3z"/>
			<path class="st1" d="M31.1,0.1v35.7c0,2.7,2.7,4.6,5.2,3.6l23.9-8.7c5.7-2.1,11.7,2.1,11.7,8.2v64.1H103V0.1H31.1z"/>
		</g>
	</g>
	
</g>
<script xmlns="" type="application/javascript"/></svg>